<svg width="158" height="168" viewBox="0 0 158 168" fill="none" xmlns="http://www.w3.org/2000/svg">
<g id="clothing doodle 2">
<path id="Vector 1" d="M3 18H145" stroke="#121212" stroke-width="3" stroke-linecap="round"/>
<g id="Group 3">
<path id="Vector 3" d="M12.53 36.0979C19.523 36.0979 25.041 33.1347 30.4236 28.8286C31.7774 27.7455 39.0823 28.1372 40.7683 28.6189C45.2874 29.9101 44.9726 31.5875 47.1289 35.4688C50.503 41.5421 55.8166 48.8908 57.7532 55.669C59.7362 62.6093 42.8303 61.467 40.4887 57.4863C38.8139 54.639 37.1561 72.848 36.1551 75.1003C34.2395 79.4103 36.3977 81.391 30.773 81.391C26.4748 81.391 22.1716 80.1328 18.1916 80.1328C14.5713 80.1328 13.3064 61.9236 12.4601 58.1153C11.5901 54.2004 7.61429 50.1663 3.72299 49.9374C-0.628986 49.6814 5.9655 37.6298 7.49742 36.0979" stroke="#121212" stroke-width="3" stroke-linecap="round"/>
<path id="Vector 4" d="M22.5951 33.5815C25.8541 33.1742 23.4331 13.2944 22.3155 10.935C19.2438 4.45035 10.0137 6.19285 10.0137 13.4513" stroke="#121212" stroke-width="3" stroke-linecap="round"/>
<path id="Vector 5" d="M52.7905 33.5815C53.268 37.8792 58.0043 42.4422 60.3394 45.8834C63.5293 50.5843 66.2385 56.2387 69.7754 60.5617C71.6985 62.9121 74.5603 65.8858 70.2647 66.3631C64.7764 66.9729 59.59 68.8095 54.0487 68.8095" stroke="#121212" stroke-width="3" stroke-linecap="round"/>
<path id="Vector 6" d="M54.0487 36.0978C54.0487 26.779 55.8961 15.5184 51.2529 7.16057C46.6003 -1.21395 36.6196 10.6577 33.9185 14.7094" stroke="#121212" stroke-width="3" stroke-linecap="round"/>
<path id="Vector 7" d="M60.3394 33.5815H79.2115" stroke="#121212" stroke-width="3" stroke-linecap="round"/>
<path id="Vector 8" d="M77.9532 34.8398C80.5342 38.0661 79.2114 44.8509 79.2114 48.6794C79.2114 57.4864 79.2114 66.2934 79.2114 75.1004C79.2114 84.5365 79.2114 93.9725 79.2114 103.409C79.2114 110.142 79.2114 116.875 79.2114 123.609C79.2114 126.134 79.6081 142.084 77.6736 144.019C75.5595 146.133 64.2021 144.298 61.3178 144.298C50.6643 144.298 55.8907 123.651 54.6776 116.13C53.5271 108.997 52.7904 99.8658 52.7904 92.7144C52.7904 87.5917 51.5322 82.8978 51.5322 77.6167" stroke="#121212" stroke-width="3" stroke-linecap="round"/>
<path id="Vector 9" d="M80.4694 52.4538C83.5181 52.4538 89.9011 53.6464 92.0723 51.4752C95.8275 47.72 94.6753 43.6616 89.9754 42.3187C88.6563 41.9418 81.0611 36.5498 79.9103 35.399C77.6487 33.1374 74.0744 28.5491 70.4043 28.5491" stroke="#121212" stroke-width="3" stroke-linecap="round"/>
<path id="Vector 10" d="M70.4047 28.5491C70.4047 24.1677 71.9181 16.6788 69.7756 12.8223C66.8604 7.57498 62.0235 9.25115 57.8232 13.4514" stroke="#121212" stroke-width="3" stroke-linecap="round"/>
<path id="Vector 11" d="M106.891 27.2908C106.407 31.1564 94.3091 30.8517 94.3091 38.6141C94.3091 46.8127 101 38.4841 104.374 36.7968C111.257 33.3556 109.407 42.0989 109.407 46.2328C109.407 59.9559 109.407 73.679 109.407 87.402C109.407 103.261 112.165 118.806 114.16 134.512C115.207 142.76 112.779 156.421 116.956 163.729C118.174 165.861 128.025 164.355 130.096 164.498C135.031 164.839 139.639 165.686 144.635 165.686C147.78 165.686 150.925 165.686 154.071 165.686C157.939 165.686 154.733 157.314 154.42 155.062C152.199 139.071 146.395 122.341 145.893 106.274C145.396 90.3745 143.377 74.7161 143.377 58.7443C143.377 54.5218 140.61 38.5028 146.522 41.1304C150.222 42.7748 156.352 46.5686 155.958 39.8722C155.841 37.8864 146.516 36.2023 144.635 36.0978C137.992 35.7287 136.356 35.3681 131.424 30.4362C127.422 26.4343 123.528 27.2908 118.144 27.2908C110.173 27.2908 105.632 25.611 105.632 34.8396" stroke="#121212" stroke-width="3" stroke-linecap="round"/>
<path id="Vector 12" d="M120.73 28.549C123.128 28.549 129.537 29.8417 129.537 26.6618C129.537 23.4819 123.128 24.7746 120.73 24.7746" stroke="#121212" stroke-width="3" stroke-linecap="round"/>
<path id="Vector 13" d="M120.73 26.0327C120.73 21.4901 127.531 6.95253 121.289 3.38611C113.456 -1.09018 105.574 6.07791 103.116 13.4512" stroke="#121212" stroke-width="3" stroke-linecap="round"/>
</g>
</g>
</svg>
