<svg width="34" height="23" viewBox="0 0 34 23" fill="none" xmlns="http://www.w3.org/2000/svg">
<path d="M3.19531 11.0586C2.29688 11.0586 1.62109 10.8398 1.16797 10.4023C0.722656 9.95703 0.5 9.28516 0.5 8.38672V3.52344C0.5 2.63281 0.722656 1.96875 1.16797 1.53125C1.62109 1.08594 2.29688 0.863281 3.19531 0.863281H13.9766C14.875 0.863281 15.5469 1.08594 15.9922 1.53125C16.4453 1.96875 16.6719 2.63281 16.6719 3.52344V8.38672C16.6719 9.28516 16.4453 9.95703 15.9922 10.4023C15.5469 10.8398 14.875 11.0586 13.9766 11.0586H3.19531ZM3.33594 9.28906H13.8359C14.1797 9.28906 14.4414 9.19922 14.6211 9.01953C14.8086 8.83203 14.9023 8.55859 14.9023 8.19922V3.72266C14.9023 3.35547 14.8086 3.08203 14.6211 2.90234C14.4414 2.72266 14.1797 2.63281 13.8359 2.63281H3.33594C2.99219 2.63281 2.72656 2.72266 2.53906 2.90234C2.35938 3.08203 2.26953 3.35547 2.26953 3.72266V8.19922C2.26953 8.55859 2.35938 8.83203 2.53906 9.01953C2.72656 9.19922 2.99219 9.28906 3.33594 9.28906ZM6.18359 22.168C5.29297 22.168 4.62109 21.9453 4.16797 21.5C3.71484 21.0625 3.48828 20.3945 3.48828 19.4961V16.1914C3.48828 15.293 3.71484 14.625 4.16797 14.1875C4.62109 13.75 5.29297 13.5312 6.18359 13.5312H15.4297C16.3281 13.5312 17 13.75 17.4453 14.1875C17.8984 14.625 18.125 15.293 18.125 16.1914V19.4961C18.125 20.3945 17.8984 21.0625 17.4453 21.5C17 21.9453 16.3281 22.168 15.4297 22.168H6.18359ZM6.32422 20.3984H15.2773C15.6289 20.3984 15.8945 20.3047 16.0742 20.1172C16.2617 19.9375 16.3555 19.668 16.3555 19.3086V16.3789C16.3555 16.0117 16.2617 15.7422 16.0742 15.5703C15.8945 15.3906 15.6289 15.3008 15.2773 15.3008H6.32422C5.98047 15.3008 5.71484 15.3906 5.52734 15.5703C5.34766 15.7422 5.25781 16.0117 5.25781 16.3789V19.3086C5.25781 19.668 5.34766 19.9375 5.52734 20.1172C5.71484 20.3047 5.98047 20.3984 6.32422 20.3984ZM23.1523 20.7969C22.2539 20.7969 21.5781 20.5742 21.125 20.1289C20.6797 19.6914 20.457 19.0234 20.457 18.125V5.10547C20.457 4.20703 20.6797 3.53906 21.125 3.10156C21.5781 2.66406 22.2539 2.44531 23.1523 2.44531H30.8047C31.7031 2.44531 32.375 2.66406 32.8203 3.10156C33.2734 3.53906 33.5 4.20703 33.5 5.10547V18.125C33.5 19.0234 33.2734 19.6914 32.8203 20.1289C32.375 20.5742 31.7031 20.7969 30.8047 20.7969H23.1523ZM23.2812 19.0273H30.6523C31.0039 19.0273 31.2695 18.9375 31.4492 18.7578C31.6367 18.5781 31.7305 18.3047 31.7305 17.9375V5.30469C31.7305 4.9375 31.6367 4.66406 31.4492 4.48438C31.2695 4.30469 31.0039 4.21484 30.6523 4.21484H23.2812C22.9375 4.21484 22.6758 4.30469 22.4961 4.48438C22.3164 4.66406 22.2266 4.9375 22.2266 5.30469V17.9375C22.2266 18.3047 22.3164 18.5781 22.4961 18.7578C22.6758 18.9375 22.9375 19.0273 23.2812 19.0273Z" fill="#35383F"/>
</svg>
