<svg width="24" height="24" viewBox="0 0 24 24" fill="none" xmlns="http://www.w3.org/2000/svg">
<g id="Right Actionable">
<path id="Vector" d="M16.7694 5.54364L17.1539 6.18758L16.7694 5.54364ZM20.0714 6.4587L20.7263 6.09313L20.0714 6.4587ZM20.6757 7.54123L20.0208 7.90681L20.6757 7.54123ZM19.7909 10.9563L20.1755 11.6002L19.7909 10.9563ZM19.791 13.0436L19.4065 13.6876L19.791 13.0436ZM20.6757 16.4587L21.3306 16.8243L20.6757 16.4587ZM20.0714 17.5412L19.4166 17.1757L20.0714 17.5412ZM16.7694 18.4563L17.1539 17.8124L16.7694 18.4563ZM7.23058 18.4563L6.84607 17.8124H6.84607L7.23058 18.4563ZM3.92856 17.5412L4.58343 17.1757H4.58343L3.92856 17.5412ZM3.32425 16.4587L2.66938 16.8243H2.66938L3.32425 16.4587ZM4.20903 13.0436L3.82452 12.3997H3.82452L4.20903 13.0436ZM4.20905 10.9563L3.82455 11.6002L4.20905 10.9563ZM3.32428 7.54123L2.66941 7.17566H2.66941L3.32428 7.54123ZM3.92859 6.4587L4.58346 6.82428H4.58346L3.92859 6.4587ZM7.23061 5.54364L6.8461 6.18758L7.23061 5.54364ZM11.3956 1.25C9.62276 1.25 8.22833 2.72907 8.22833 4.5H9.72833C9.72833 3.5095 10.4984 2.75 11.3956 2.75V1.25ZM12.6042 1.25H11.3956V2.75H12.6042V1.25ZM15.7714 4.5C15.7714 2.72907 14.377 1.25 12.6042 1.25V2.75C13.5014 2.75 14.2714 3.5095 14.2714 4.5H15.7714ZM20.7263 6.09313C19.8588 4.53915 17.9147 3.98625 16.3849 4.8997L17.1539 6.18758C17.9364 5.72032 18.949 5.9868 19.4165 6.82428L20.7263 6.09313ZM21.3306 7.17566L20.7263 6.09313L19.4165 6.82428L20.0208 7.90681L21.3306 7.17566ZM20.1755 11.6002C21.6897 10.6961 22.1903 8.71565 21.3306 7.17566L20.0208 7.90681C20.4962 8.75829 20.2045 9.83581 19.4064 10.3124L20.1755 11.6002ZM21.3306 16.8243C22.1903 15.2843 21.6897 13.3039 20.1755 12.3997L19.4065 13.6876C20.2046 14.1641 20.4962 15.2417 20.0209 16.0931L21.3306 16.8243ZM20.7263 17.9068L21.3306 16.8243L20.0209 16.0931L19.4166 17.1757L20.7263 17.9068ZM16.3849 19.1002C17.9147 20.0137 19.8588 19.4608 20.7263 17.9068L19.4166 17.1757C18.9491 18.0131 17.9365 18.2796 17.1539 17.8124L16.3849 19.1002ZM12.6042 22.75C14.377 22.75 15.7714 21.2709 15.7714 19.5H14.2714C14.2714 20.4905 13.5014 21.25 12.6042 21.25V22.75ZM11.3956 22.75H12.6042V21.25H11.3956V22.75ZM8.22833 19.5C8.22833 21.2709 9.62276 22.75 11.3956 22.75V21.25C10.4984 21.25 9.72833 20.4905 9.72833 19.5H8.22833ZM3.27369 17.9068C4.14119 19.4608 6.08532 20.0137 7.61509 19.1002L6.84607 17.8124C6.06354 18.2796 5.05095 18.0131 4.58343 17.1757L3.27369 17.9068ZM2.66938 16.8243L3.27369 17.9068L4.58343 17.1757L3.97912 16.0931L2.66938 16.8243ZM3.82452 12.3997C2.3103 13.3039 1.8097 15.2843 2.66938 16.8243L3.97912 16.0931C3.5038 15.2417 3.79545 14.1641 4.59353 13.6876L3.82452 12.3997ZM2.66941 7.17566C1.80973 8.71565 2.31033 10.6961 3.82455 11.6002L4.59356 10.3124C3.79548 9.83581 3.50382 8.75829 3.97915 7.90681L2.66941 7.17566ZM3.27372 6.09313L2.66941 7.17566L3.97915 7.90681L4.58346 6.82428L3.27372 6.09313ZM7.61511 4.8997C6.08535 3.98625 4.14121 4.53915 3.27372 6.09313L4.58346 6.82428C5.05098 5.9868 6.06357 5.72032 6.8461 6.18758L7.61511 4.8997ZM6.8461 6.18758C8.16093 6.97268 9.72833 5.96491 9.72833 4.5H8.22833C8.22833 4.89037 7.85382 5.04224 7.61511 4.8997L6.8461 6.18758ZM4.59353 13.6876C5.85764 12.9328 5.85773 11.0672 4.59356 10.3124L3.82455 11.6002C4.11401 11.7731 4.11404 12.2268 3.82452 12.3997L4.59353 13.6876ZM9.72833 19.5C9.72833 18.0351 8.16096 17.0272 6.84607 17.8124L7.61509 19.1002C7.85376 18.9577 8.22833 19.1096 8.22833 19.5H9.72833ZM17.1539 17.8124C15.8391 17.0272 14.2714 18.0349 14.2714 19.5H15.7714C15.7714 19.1096 16.146 18.9576 16.3849 19.1002L17.1539 17.8124ZM19.4064 10.3124C18.1423 11.0672 18.1424 12.9328 19.4065 13.6876L20.1755 12.3997C19.886 12.2268 19.886 11.7731 20.1755 11.6002L19.4064 10.3124ZM14.2714 4.5C14.2714 5.96514 15.8391 6.97265 17.1539 6.18758L16.3849 4.8997C16.146 5.04235 15.7714 4.8903 15.7714 4.5H14.2714ZM13.8869 11.9999C13.8869 13.1159 13.0185 13.9772 12 13.9772V15.4772C13.8941 15.4772 15.3869 13.8964 15.3869 11.9999H13.8869ZM12 13.9772C10.9814 13.9772 10.113 13.1159 10.113 11.9999H8.61296C8.61296 13.8964 10.1058 15.4772 12 15.4772V13.9772ZM10.113 11.9999C10.113 10.8839 10.9814 10.0226 12 10.0226V8.52264C10.1058 8.52264 8.61296 10.1035 8.61296 11.9999H10.113ZM12 10.0226C13.0185 10.0226 13.8869 10.8839 13.8869 11.9999H15.3869C15.3869 10.1035 13.8941 8.52264 12 8.52264V10.0226Z" fill="#131214"/>
</g>
</svg>
