<svg width="24" height="24" viewBox="0 0 24 24" fill="none" xmlns="http://www.w3.org/2000/svg">
<g id="Right Actionable 2">
<g id="profile">
<path id="Vector" d="M3.46631 21.2215V21.5995C3.46631 21.974 3.77278 22.2805 4.14736 22.2805H20.319C20.6936 22.2805 21.0001 21.974 21.0001 21.5995V21.2215C21.0001 16.386 17.067 12.4563 12.2349 12.4563C7.4028 12.4563 3.46631 16.3894 3.46631 21.2215ZM12.2315 13.8184C16.2122 13.8184 19.4711 16.9751 19.6311 20.9184H4.83182C4.99187 16.9751 8.25072 13.8184 12.2315 13.8184Z" fill="black"/>
<path id="Vector_2" d="M12.2826 11.4858C14.9761 11.4858 17.1657 9.29622 17.1657 6.60265C17.1657 3.90907 14.9761 1.71948 12.2826 1.71948C9.589 1.71948 7.39941 3.90907 7.39941 6.60265C7.39941 9.29622 9.589 11.4858 12.2826 11.4858ZM12.2826 3.08159C14.2236 3.08159 15.8036 4.66164 15.8036 6.60265C15.8036 8.54365 14.2236 10.1237 12.2826 10.1237C10.3416 10.1237 8.76152 8.54365 8.76152 6.60265C8.76152 4.66164 10.3416 3.08159 12.2826 3.08159Z" fill="black"/>
</g>
</g>
</svg>
